<svg xmlns="http://www.w3.org/2000/svg" xmlns:xlink="http://www.w3.org/1999/xlink" width="500" zoomAndPan="magnify" viewBox="0 0 375 374.999991" height="500" preserveAspectRatio="xMidYMid meet" version="1.0"><defs><g/><clipPath id="b1b45c17e5"><path d="M 42 21 L 349 21 L 349 336 L 42 336 Z M 42 21 " clip-rule="nonzero"/></clipPath><clipPath id="ecaca1d5f7"><path d="M 281.449219 -60.230469 L 428.003906 249.605469 L 120.199219 395.199219 L -26.355469 85.359375 Z M 281.449219 -60.230469 " clip-rule="nonzero"/></clipPath><clipPath id="5ade5a5772"><path d="M 281.449219 -60.230469 L 428.003906 249.605469 L 120.199219 395.199219 L -26.355469 85.359375 Z M 281.449219 -60.230469 " clip-rule="nonzero"/></clipPath><clipPath id="c2b9d908a9"><path d="M 16 23 L 363 23 L 363 348 L 16 348 Z M 16 23 " clip-rule="nonzero"/></clipPath><clipPath id="fc80721f2d"><path d="M 281.449219 -60.230469 L 428.003906 249.605469 L 120.199219 395.199219 L -26.355469 85.359375 Z M 281.449219 -60.230469 " clip-rule="nonzero"/></clipPath><clipPath id="caecf0670f"><path d="M 281.449219 -60.230469 L 428.003906 249.605469 L 120.199219 395.199219 L -26.355469 85.359375 Z M 281.449219 -60.230469 " clip-rule="nonzero"/></clipPath><clipPath id="4d86f4fd7f"><path d="M 228.980469 101.617188 L 270.980469 101.617188 L 270.980469 153.367188 L 228.980469 153.367188 Z M 228.980469 101.617188 " clip-rule="nonzero"/></clipPath></defs><g clip-path="url(#b1b45c17e5)"><g clip-path="url(#ecaca1d5f7)"><g clip-path="url(#5ade5a5772)"><path fill="#ffffff" d="M 343.382812 133.488281 L 342.210938 131.277344 C 334.605469 114.914062 319.742188 94.941406 297.621094 71.359375 C 278.640625 52.332031 262.507812 39.664062 249.226562 33.351562 C 236.492188 27.21875 228.058594 23.9375 223.929688 23.503906 C 217.554688 22.046875 211.0625 21.257812 204.453125 21.136719 C 184.359375 21.300781 164.375 25.101562 144.5 32.535156 C 118.925781 41.355469 96.175781 52.09375 76.246094 64.746094 C 59.121094 77.523438 49.300781 87.910156 46.789062 95.898438 C 41.972656 102.59375 40.96875 116.78125 43.773438 138.460938 L 57.300781 201.355469 C 60.8125 214.082031 64.28125 223.453125 67.710938 229.472656 C 80.425781 253.511719 104.976562 275.851562 141.363281 296.496094 L 191.136719 323.839844 C 202.628906 329.429688 209.566406 332.390625 211.945312 332.722656 C 223.675781 335.515625 230.742188 336.488281 233.144531 335.644531 C 238.332031 335.257812 242.648438 334.375 246.09375 332.992188 C 255.957031 329.988281 266.710938 320.371094 278.351562 304.140625 C 296.980469 275.535156 313.554688 246.25 328.066406 216.285156 C 339.835938 192.746094 346.164062 177.035156 347.046875 169.160156 C 349.691406 156.847656 348.472656 144.957031 343.382812 133.488281 " fill-opacity="1" fill-rule="nonzero"/></g></g></g><g clip-path="url(#c2b9d908a9)"><g clip-path="url(#fc80721f2d)"><g clip-path="url(#caecf0670f)"><path fill="#171539" d="M 353.753906 159.125 C 353.78125 159.050781 361.066406 138.007812 360.367188 127.300781 C 360.308594 126.457031 360.238281 125.609375 360.148438 124.757812 C 358.207031 106.359375 348.292969 86.863281 333.09375 76.882812 C 322.402344 69.863281 308.003906 69.972656 294.828125 70.347656 C 288.71875 70.523438 282.558594 70.929688 276.375 71.335938 C 270.171875 71.742188 263.945312 72.15625 257.734375 72.332031 C 246.691406 72.644531 235.667969 72.222656 224.894531 69.71875 C 209.039062 66.03125 194.855469 57.054688 180.886719 48.222656 C 166.964844 39.421875 153.253906 30.769531 138.097656 27.246094 C 135.496094 26.640625 132.859375 26.1875 130.167969 25.910156 C 109.136719 23.753906 88.941406 39.605469 72.425781 53.664062 C 44.421875 77.496094 16.476562 112.664062 18.230469 149.011719 C 18.308594 150.671875 18.4375 152.324219 18.613281 153.980469 C 20.222656 169.261719 25.660156 184.179688 31.390625 198.605469 C 42.328125 226.160156 56.4375 252.542969 72.308594 277.613281 C 82.929688 294.386719 94.332031 310.8125 107.789062 325.320312 C 117.707031 336.011719 131.699219 347.714844 145.453125 345.386719 C 159.03125 343.085938 170.183594 332.105469 180.03125 321.890625 C 186.777344 314.898438 193.074219 307.492188 199.394531 300.054688 C 204.703125 293.808594 210.035156 287.539062 215.628906 281.519531 C 231.863281 264.054688 251.15625 249.828125 270.328125 235.6875 C 277.089844 230.703125 283.824219 225.734375 290.429688 220.625 C 305.378906 209.058594 320.238281 197.324219 333.640625 184.082031 C 341.265625 176.542969 353.859375 158.914062 353.875 158.890625 L 353.753906 159.125 M 355.496094 159.730469 C 355.46875 159.8125 355.425781 159.894531 355.375 159.964844 C 355.394531 159.941406 342.703125 177.71875 334.933594 185.394531 C 321.449219 198.726562 306.507812 210.519531 291.558594 222.082031 C 284.9375 227.207031 278.179688 232.191406 271.425781 237.171875 C 252.226562 251.332031 233.078125 265.460938 216.980469 282.777344 C 211.414062 288.765625 206.113281 295 200.800781 301.25 C 194.484375 308.683594 188.152344 316.128906 181.359375 323.171875 C 171.59375 333.300781 160.035156 344.789062 145.761719 347.203125 C 130.914062 349.71875 116.269531 337.171875 106.441406 326.574219 C 92.867188 311.945312 81.394531 295.410156 70.75 278.597656 C 54.832031 253.453125 40.664062 226.96875 29.675781 199.285156 C 23.949219 184.855469 18.417969 169.730469 16.78125 154.171875 C 16.601562 152.484375 16.46875 150.796875 16.386719 149.097656 C 14.589844 111.828125 43.15625 76.144531 71.230469 52.257812 C 87.605469 38.320312 108.410156 21.824219 130.351562 24.078125 C 133.125 24.359375 135.84375 24.828125 138.515625 25.449219 C 154.027344 29.054688 168.003906 37.898438 181.871094 46.664062 C 195.894531 55.53125 209.8125 64.316406 225.308594 67.921875 C 235.863281 70.375 246.707031 70.800781 257.679688 70.488281 C 263.851562 70.3125 270.042969 69.902344 276.25 69.496094 C 282.429688 69.085938 288.625 68.679688 294.777344 68.503906 C 307.832031 68.132812 322.847656 67.949219 334.101562 75.339844 C 349.863281 85.6875 359.996094 105.746094 361.980469 124.566406 C 362.074219 125.441406 362.148438 126.3125 362.203125 127.183594 C 362.933594 138.347656 355.472656 159.804688 355.496094 159.730469 Z M 355.496094 159.730469 " fill-opacity="0.9608" fill-rule="nonzero"/></g></g></g><g fill="#000000" fill-opacity="1"><g transform="translate(95.042093, 183.076277)"><g><path d="M 220.191406 -50.984375 C 217.984375 -52.789062 214.574219 -52.386719 212.765625 -50.179688 C 212.363281 -49.578125 167.601562 5.019531 126.457031 -18.867188 C 121.035156 -22.683594 116.820312 -27.902344 114.613281 -33.921875 C 110.796875 -41.550781 106.183594 -50.78125 93.335938 -48.777344 C 86.710938 -47.773438 76.476562 -39.339844 67.84375 -29.707031 C 67.441406 -29.105469 66.640625 -28.902344 66.039062 -29.105469 C 65.433594 -29.304688 64.832031 -29.707031 64.832031 -30.511719 C 63.226562 -39.542969 57.207031 -47.167969 48.777344 -50.78125 C 41.949219 -52.589844 30.910156 -54.597656 7.828125 -31.714844 C 6.625 -30.710938 5.019531 -31.113281 5.21875 -32.71875 C 5.21875 -33.519531 9.234375 -49.777344 9.234375 -49.777344 C 9.835938 -52.589844 8.027344 -55.398438 5.21875 -56.203125 C 2.410156 -56.804688 -0.402344 -54.996094 -1.203125 -52.1875 L -10.839844 -9.835938 C -11.441406 -7.425781 -10.238281 -5.019531 -8.027344 -3.8125 C -5.621094 -2.808594 -3.011719 -3.414062 -1.605469 -5.417969 C 25.292969 -39.140625 38.539062 -42.351562 43.957031 -41.550781 C 49.378906 -40.546875 56.605469 -29.707031 55.800781 -12.242188 C 55.800781 -9.835938 57.207031 -7.628906 59.613281 -7.023438 C 62.023438 -6.222656 64.433594 -7.226562 65.636719 -9.234375 C 73.867188 -23.285156 89.921875 -37.535156 94.941406 -38.339844 C 99.757812 -39.140625 101.164062 -37.335938 105.179688 -29.304688 C 108.1875 -21.277344 113.808594 -14.453125 121.035156 -9.835938 C 129.464844 -4.816406 139.101562 -2.007812 148.9375 -2.007812 C 187.273438 -2.007812 219.390625 -41.347656 220.996094 -43.558594 C 222.800781 -45.765625 222.402344 -49.175781 220.191406 -50.984375 Z M 220.191406 -50.984375 "/></g></g></g><g clip-path="url(#4d86f4fd7f)"><path fill="#171539" d="M 248.609375 153.253906 L 248.304688 153.253906 C 248.304688 135.378906 245.378906 134.082031 228.941406 134.082031 L 228.941406 133.78125 C 245.378906 133.78125 248.304688 132.484375 248.304688 114.609375 L 248.609375 114.609375 C 248.609375 132.484375 251.535156 133.78125 267.96875 133.78125 L 267.96875 134.082031 C 251.535156 134.082031 248.609375 135.378906 248.609375 153.253906 Z M 266.621094 128.925781 L 266.554688 128.925781 C 266.554688 124.921875 265.898438 124.628906 262.21875 124.628906 L 262.21875 124.5625 C 265.898438 124.5625 266.554688 124.273438 266.554688 120.269531 L 266.621094 120.269531 C 266.621094 124.273438 267.277344 124.5625 270.957031 124.5625 L 270.957031 124.628906 C 267.277344 124.628906 266.621094 124.921875 266.621094 128.925781 Z M 258.234375 118.980469 L 258.101562 118.980469 C 258.101562 111.035156 256.800781 110.460938 249.5 110.460938 L 249.5 110.324219 C 256.800781 110.324219 258.101562 109.75 258.101562 101.808594 L 258.234375 101.808594 C 258.234375 109.75 259.539062 110.324219 266.839844 110.324219 L 266.839844 110.460938 C 259.539062 110.460938 258.234375 111.035156 258.234375 118.980469 " fill-opacity="1" fill-rule="evenodd"/></g></svg>