<svg xmlns="http://www.w3.org/2000/svg" xmlns:xlink="http://www.w3.org/1999/xlink" width="500" zoomAndPan="magnify" viewBox="0 0 375 374.999991" height="500" preserveAspectRatio="xMidYMid meet" version="1.0"><path fill="#000000" d="M 187.5 0.00390625 C 83.941406 0.00390625 0 83.945312 0 187.503906 L 0 374.902344 L 43.523438 374.902344 L 43.523438 187.503906 C 43.523438 107.996094 107.988281 43.527344 187.5 43.527344 C 267.011719 43.527344 331.464844 107.992188 331.464844 187.503906 C 331.464844 264.773438 270.585938 327.804688 194.164062 331.292969 C 169.890625 331.101562 149.195312 327.160156 140.125 321.582031 L 140.125 259.707031 C 153.660156 268.554688 169.832031 273.722656 187.222656 273.722656 C 234.753906 273.722656 273.296875 235.183594 273.296875 187.648438 C 273.296875 140.113281 234.753906 101.558594 187.222656 101.558594 C 139.679688 101.558594 101.144531 140.113281 101.144531 187.648438 L 101.144531 374.914062 C 129.554688 374.886719 159.726562 374.945312 187.5 374.914062 C 291.0625 374.914062 375 291.054688 375 187.503906 C 375 83.945312 291.050781 0.00390625 187.5 0.00390625 L 187.5 0.0078125 Z M 187.5 0.00390625 " fill-opacity="1" fill-rule="nonzero"/></svg>